<svg width="78" height="77" viewBox="0 0 78 77" fill="none" xmlns="http://www.w3.org/2000/svg">
<path d="M47.4735 36.5434L42.9029 29.1051C45.3809 29.536 50.9363 30.8121 53.3343 32.4692C56.6862 33.6583 64.0537 38.8704 66.709 50.2062C67.0227 51.3859 67.0621 53.6874 64.7094 53.4564L53.102 53.1888C51.4077 53.349 47.9353 53.4426 47.6005 52.5356L27.3434 20.8059L37.6624 2.63286C38.1345 1.44944 39.4154 -0.354554 40.7617 1.89685L58.842 33.3134C56.7971 31.8066 51.7184 28.5566 47.7626 27.612L39.7571 13.9078C39.6592 13.7402 39.4174 13.7393 39.3181 13.9061L35.4436 20.4187C35.3954 20.4998 35.3958 20.6008 35.4449 20.6814L51.568 47.1899C51.613 47.2638 51.6924 47.3099 51.779 47.3122L58.8716 47.4997C59.0634 47.5047 59.1923 47.3066 59.1023 47.1371C57.5209 44.1575 53.2974 38.4097 47.4735 36.5434Z" fill="#F36F2E"/>
<path d="M12.7277 50.1412C12.7842 45.912 16.3796 35.9405 30.3094 29.8886L33.9935 35.507C29.5617 37.1287 21.3036 41.3696 20.3101 46.3092C20.2804 46.4574 20.3935 46.5925 20.5445 46.5986L26.8773 46.8527C27.0791 46.8608 27.2096 46.6422 27.1069 46.4684L25.4591 43.6813L30.1265 40.155L36.5548 49.8921C37.2643 50.8254 38.0976 52.7108 35.7547 52.7854L18.9377 52.4096C17.6096 52.3799 16.2615 52.5979 14.9527 52.3705C13.8271 52.1749 12.7734 51.5752 12.7277 50.1412Z" fill="#FCFCFC"/>
<path d="M9.05213 68.6648H4.97548L4.35583 70.5401H0.996664L5.18746 59.0439H8.87276L13.0473 70.5401H9.67178L9.05213 68.6648ZM8.25311 66.2188L7.01381 62.5009L5.79081 66.2188H8.25311ZM26.0417 61.3106C27.1941 61.3106 28.0964 61.6584 28.7486 62.3542C29.4118 63.0499 29.7433 64.0011 29.7433 65.2078V70.5401H26.5472V65.6318C26.5472 65.1426 26.4113 64.7621 26.1396 64.4903C25.8678 64.2186 25.4982 64.0827 25.0307 64.0827C24.5633 64.0827 24.1936 64.2186 23.9219 64.4903C23.6501 64.7621 23.5142 65.1426 23.5142 65.6318V70.5401H20.3181V65.6318C20.3181 65.1426 20.1822 64.7621 19.9104 64.4903C19.6495 64.2186 19.2853 64.0827 18.8179 64.0827C18.3396 64.0827 17.9645 64.2186 17.6927 64.4903C17.421 64.7621 17.2851 65.1426 17.2851 65.6318V70.5401H14.089V61.3921H17.2851V62.5988C17.5677 62.2074 17.9319 61.8976 18.3776 61.6693C18.8342 61.4301 19.356 61.3106 19.943 61.3106C20.6171 61.3106 21.215 61.4573 21.7368 61.7508C22.2695 62.0444 22.688 62.4575 22.9924 62.9901C23.3185 62.4901 23.7479 62.0878 24.2806 61.7835C24.8133 61.4682 25.4003 61.3106 26.0417 61.3106ZM30.9726 65.9579C30.9726 65.0122 31.1411 64.186 31.4781 63.4793C31.8259 62.7727 32.2934 62.2292 32.8804 61.8487C33.4783 61.4682 34.1415 61.2779 34.8698 61.2779C35.5004 61.2779 36.0439 61.403 36.5005 61.653C36.9571 61.903 37.3104 62.24 37.5604 62.664V61.3921H40.7565V70.5401H37.5604V69.2682C37.3104 69.6922 36.9517 70.0292 36.4842 70.2792C36.0276 70.5292 35.4895 70.6543 34.8698 70.6543C34.1415 70.6543 33.4783 70.464 32.8804 70.0835C32.2934 69.703 31.8259 69.1595 31.4781 68.4529C31.1411 67.7354 30.9726 66.9037 30.9726 65.9579ZM37.5604 65.9579C37.5604 65.3709 37.3974 64.9089 37.0712 64.5719C36.756 64.2349 36.3646 64.0664 35.8972 64.0664C35.4188 64.0664 35.022 64.2349 34.7068 64.5719C34.3915 64.898 34.2339 65.36 34.2339 65.9579C34.2339 66.545 34.3915 67.0124 34.7068 67.3603C35.022 67.6973 35.4188 67.8658 35.8972 67.8658C36.3646 67.8658 36.756 67.6973 37.0712 67.3603C37.3974 67.0233 37.5604 66.5559 37.5604 65.9579ZM45.7739 62.664C46.0239 62.2292 46.3772 61.8922 46.8338 61.653C47.2904 61.403 47.8285 61.2779 48.4482 61.2779C49.1765 61.2779 49.8342 61.4682 50.4213 61.8487C51.0192 62.2292 51.4866 62.7727 51.8236 63.4793C52.1715 64.186 52.3454 65.0122 52.3454 65.9579C52.3454 66.9037 52.1715 67.7354 51.8236 68.4529C51.4866 69.1595 51.0192 69.703 50.4213 70.0835C49.8342 70.464 49.1765 70.6543 48.4482 70.6543C47.8285 70.6543 47.2904 70.5347 46.8338 70.2955C46.3772 70.0455 46.0239 69.703 45.7739 69.2682V70.5401H42.5778V58.4732H45.7739V62.664ZM49.1004 65.9579C49.1004 65.36 48.9374 64.898 48.6112 64.5719C48.296 64.2349 47.9046 64.0664 47.4371 64.0664C46.9697 64.0664 46.5729 64.2349 46.2468 64.5719C45.9315 64.9089 45.7739 65.3709 45.7739 65.9579C45.7739 66.5559 45.9315 67.0233 46.2468 67.3603C46.5729 67.6973 46.9697 67.8658 47.4371 67.8658C47.9046 67.8658 48.296 67.6973 48.6112 67.3603C48.9374 67.0124 49.1004 66.545 49.1004 65.9579ZM55.2755 60.5441C54.7102 60.5441 54.2537 60.392 53.9058 60.0876C53.5688 59.7723 53.4003 59.3809 53.4003 58.9135C53.4003 58.4352 53.5688 58.0384 53.9058 57.7231C54.2537 57.4078 54.7102 57.2502 55.2755 57.2502C55.83 57.2502 56.2757 57.4078 56.6127 57.7231C56.9606 58.0384 57.1345 58.4352 57.1345 58.9135C57.1345 59.3809 56.9606 59.7723 56.6127 60.0876C56.2757 60.392 55.83 60.5441 55.2755 60.5441ZM56.8573 61.3921V70.5401H53.6612V61.3921H56.8573ZM61.8735 58.4732V70.5401H58.6774V58.4732H61.8735ZM66.8897 58.4732V70.5401H63.6936V58.4732H66.8897ZM72.607 70.6543C71.7808 70.6543 71.0416 70.5184 70.3893 70.2466C69.748 69.9639 69.237 69.5834 68.8565 69.1051C68.4869 68.6159 68.2804 68.0669 68.2369 67.4582H71.3351C71.3786 67.7517 71.5145 67.98 71.7428 68.143C71.9711 68.3061 72.2537 68.3876 72.5907 68.3876C72.8516 68.3876 73.0582 68.3333 73.2104 68.2246C73.3626 68.1159 73.4387 67.9745 73.4387 67.8006C73.4387 67.5723 73.3137 67.4038 73.0636 67.2951C72.8136 67.1864 72.4005 67.0668 71.8243 66.9363C71.1721 66.8059 70.6285 66.6591 70.1937 66.4961C69.7588 66.333 69.3783 66.0667 69.0522 65.697C68.7369 65.3274 68.5793 64.8274 68.5793 64.1968C68.5793 63.6533 68.7261 63.1641 69.0196 62.7292C69.3131 62.2835 69.7425 61.9302 70.3078 61.6693C70.884 61.4084 71.5743 61.2779 72.3788 61.2779C73.5746 61.2779 74.5149 61.5715 75.1998 62.1585C75.8847 62.7455 76.2815 63.5174 76.3902 64.474H73.5039C73.4496 64.1805 73.3191 63.9577 73.1126 63.8055C72.9169 63.6424 72.6505 63.5609 72.3135 63.5609C72.0526 63.5609 71.8515 63.6098 71.7102 63.7076C71.5797 63.8055 71.5145 63.9414 71.5145 64.1153C71.5145 64.3327 71.6395 64.5012 71.8896 64.6208C72.1396 64.7295 72.5418 64.8437 73.0962 64.9632C73.7594 65.1046 74.3084 65.2622 74.7432 65.4361C75.1889 65.6101 75.5748 65.8927 75.901 66.2841C76.238 66.6646 76.4065 67.1864 76.4065 67.8495C76.4065 68.3822 76.2489 68.8605 75.9336 69.2845C75.6292 69.7085 75.1889 70.0455 74.6128 70.2955C74.0475 70.5347 73.3789 70.6543 72.607 70.6543Z" fill="#FCFCFC"/>
</svg>
