<svg width="16" height="121" viewBox="0 0 16 121" fill="none" xmlns="http://www.w3.org/2000/svg">
<path d="M15.14 119.44C15.14 119.707 15.06 119.92 14.9 120.08C14.74 120.227 14.52 120.3 14.24 120.3H1.7C1.39333 120.3 1.16 120.227 0.999999 120.08C0.84 119.933 0.76 119.74 0.76 119.5C0.76 119.273 0.8 119.1 0.879999 118.98C0.959999 118.86 1.1 118.727 1.3 118.58L12.54 110.1V110.6H1.66C1.36667 110.6 1.14667 110.527 0.999999 110.38C0.84 110.22 0.76 110 0.76 109.72C0.76 109.44 0.84 109.227 0.999999 109.08C1.14667 108.933 1.36667 108.86 1.66 108.86H14.24C14.52 108.86 14.74 108.933 14.9 109.08C15.06 109.213 15.14 109.393 15.14 109.62C15.14 109.833 15.0933 110.013 15 110.16C14.92 110.293 14.78 110.433 14.58 110.58L3.34 119.04V118.58H14.24C14.52 118.58 14.74 118.653 14.9 118.8C15.06 118.947 15.14 119.16 15.14 119.44ZM15.14 105.676C15.14 105.916 15.0867 106.109 14.98 106.256C14.8733 106.389 14.7267 106.469 14.54 106.496C14.3533 106.522 14.1467 106.482 13.92 106.376L1.56 100.916C1.28 100.796 1.08 100.642 0.96 100.456C0.826666 100.269 0.76 100.062 0.76 99.8358C0.76 99.6091 0.826666 99.4091 0.96 99.2358C1.08 99.0491 1.28 98.8891 1.56 98.7558L13.92 93.2958C14.1467 93.1891 14.36 93.1491 14.56 93.1758C14.7467 93.1891 14.8933 93.2624 15 93.3958C15.0933 93.5291 15.14 93.7158 15.14 93.9558C15.14 94.2224 15.0733 94.4358 14.94 94.5958C14.7933 94.7558 14.5867 94.8958 14.32 95.0158L11 96.4358L11.48 95.5758V104.136L11 103.276L14.32 104.696C14.6133 104.816 14.8267 104.949 14.96 105.096C15.08 105.242 15.14 105.436 15.14 105.676ZM3 99.8758L10.38 102.996L9.96 103.476V96.2358L10.38 96.6958L3 99.8358V99.8758ZM15.14 86.6611C15.14 86.9411 15.08 87.1678 14.96 87.3411C14.8267 87.5144 14.6267 87.6611 14.36 87.7811L1.98 93.2011C1.72667 93.3078 1.51333 93.3411 1.34 93.3011C1.15333 93.2478 1.01333 93.1478 0.919999 93.0011C0.813333 92.8411 0.76 92.6544 0.76 92.4411C0.76 92.1611 0.82 91.9544 0.94 91.8211C1.06 91.6744 1.24 91.5478 1.48 91.4411L13.46 86.2811V86.9811L1.48 81.8411C1.24 81.7344 1.06 81.6078 0.94 81.4611C0.82 81.3144 0.76 81.1078 0.76 80.8411C0.76 80.6278 0.813333 80.4544 0.919999 80.3211C1.02667 80.1744 1.17333 80.0878 1.36 80.0611C1.53333 80.0211 1.74 80.0478 1.98 80.1411L14.36 85.5811C14.6267 85.6878 14.8267 85.8278 14.96 86.0011C15.08 86.1611 15.14 86.3811 15.14 86.6611ZM15.14 77.1144C15.14 77.4077 15.06 77.6344 14.9 77.7944C14.7267 77.9544 14.4867 78.0344 14.18 78.0344H1.72C1.4 78.0344 1.16 77.9544 0.999999 77.7944C0.84 77.6344 0.76 77.4077 0.76 77.1144C0.76 76.8077 0.84 76.5744 0.999999 76.4144C1.16 76.2544 1.4 76.1744 1.72 76.1744H14.18C14.4867 76.1744 14.7267 76.2544 14.9 76.4144C15.06 76.561 15.14 76.7944 15.14 77.1144ZM15.18 66.3C15.18 67.8067 14.8933 69.0867 14.32 70.14C13.7333 71.18 12.9 71.9733 11.82 72.52C10.74 73.0533 9.45333 73.32 7.96 73.32C6.84 73.32 5.84 73.1667 4.96 72.86C4.06667 72.5533 3.30667 72.1067 2.68 71.52C2.04 70.92 1.55333 70.2 1.22 69.36C0.886666 68.5067 0.719999 67.5467 0.719999 66.48C0.719999 65.6533 0.833333 64.8533 1.06 64.08C1.27333 63.3067 1.62667 62.6 2.12 61.96C2.24 61.8 2.38 61.7 2.54 61.66C2.7 61.6067 2.86 61.6 3.02 61.64C3.18 61.68 3.32 61.76 3.44 61.88C3.56 61.9867 3.63333 62.1267 3.66 62.3C3.67333 62.46 3.62 62.6333 3.5 62.82C3.1 63.3667 2.81333 63.94 2.64 64.54C2.46667 65.1267 2.38 65.7733 2.38 66.48C2.38 67.5333 2.6 68.4267 3.04 69.16C3.46667 69.8933 4.1 70.4467 4.94 70.82C5.76667 71.18 6.77333 71.36 7.96 71.36C9.78667 71.36 11.1733 70.9333 12.12 70.08C13.0667 69.2133 13.54 67.9333 13.54 66.24C13.54 65.6133 13.48 65.0067 13.36 64.42C13.24 63.82 13.0733 63.2467 12.86 62.7L13.86 63.1H9.04V65.82C9.04 66.06 8.97333 66.2533 8.84 66.4C8.70667 66.5333 8.52667 66.6 8.3 66.6C8.07333 66.6 7.9 66.5333 7.78 66.4C7.66 66.2533 7.6 66.06 7.6 65.82V62.28C7.6 62.04 7.66667 61.8533 7.8 61.72C7.93333 61.5733 8.12667 61.5 8.38 61.5H13.52C13.7333 61.5 13.92 61.54 14.08 61.62C14.2267 61.7 14.3333 61.8333 14.4 62.02C14.6267 62.58 14.8133 63.2467 14.96 64.02C15.1067 64.7933 15.18 65.5533 15.18 66.3ZM15.14 58.4297C15.14 58.6697 15.0867 58.863 14.98 59.0097C14.8733 59.143 14.7267 59.223 14.54 59.2497C14.3533 59.2764 14.1467 59.2364 13.92 59.1297L1.56 53.6697C1.28 53.5497 1.08 53.3964 0.96 53.2097C0.826666 53.023 0.76 52.8164 0.76 52.5897C0.76 52.363 0.826666 52.163 0.96 51.9897C1.08 51.803 1.28 51.643 1.56 51.5097L13.92 46.0497C14.1467 45.943 14.36 45.903 14.56 45.9297C14.7467 45.943 14.8933 46.0164 15 46.1497C15.0933 46.283 15.14 46.4697 15.14 46.7097C15.14 46.9764 15.0733 47.1897 14.94 47.3497C14.7933 47.5097 14.5867 47.6497 14.32 47.7697L11 49.1897L11.48 48.3297V56.8897L11 56.0297L14.32 57.4497C14.6133 57.5697 14.8267 57.703 14.96 57.8497C15.08 57.9964 15.14 58.1897 15.14 58.4297ZM3 52.6297L10.38 55.7497L9.96 56.2297V48.9897L10.38 49.4497L3 52.5897V52.6297ZM15.14 40.7247C15.14 41.0314 15.06 41.2647 14.9 41.4247C14.7267 41.5847 14.4867 41.6647 14.18 41.6647H2.48V46.0447C2.48 46.298 2.41333 46.498 2.28 46.6447C2.13333 46.7914 1.93333 46.8647 1.68 46.8647C1.42667 46.8647 1.23333 46.7914 1.1 46.6447C0.966666 46.498 0.899999 46.298 0.899999 46.0447V35.4247C0.899999 35.158 0.966666 34.958 1.1 34.8247C1.23333 34.678 1.42667 34.6047 1.68 34.6047C1.93333 34.6047 2.13333 34.678 2.28 34.8247C2.41333 34.958 2.48 35.158 2.48 35.4247V39.8047H14.18C14.4867 39.8047 14.7267 39.8847 14.9 40.0447C15.06 40.1914 15.14 40.418 15.14 40.7247ZM15.14 32.0362C15.14 32.3296 15.06 32.5562 14.9 32.7162C14.7267 32.8762 14.4867 32.9562 14.18 32.9562H1.72C1.4 32.9562 1.16 32.8762 0.999999 32.7162C0.84 32.5562 0.76 32.3296 0.76 32.0362C0.76 31.7296 0.84 31.4962 0.999999 31.3362C1.16 31.1762 1.4 31.0962 1.72 31.0962H14.18C14.4867 31.0962 14.7267 31.1762 14.9 31.3362C15.06 31.4829 15.14 31.7162 15.14 32.0362ZM15.18 21.7019C15.18 23.0352 14.8867 24.1885 14.3 25.1619C13.7 26.1352 12.86 26.8952 11.78 27.4419C10.6867 27.9752 9.40667 28.2419 7.94 28.2419C6.83333 28.2419 5.84 28.0885 4.96 27.7819C4.06667 27.4752 3.30667 27.0419 2.68 26.4819C2.04 25.9085 1.55333 25.2219 1.22 24.4219C0.886666 23.6085 0.719999 22.7019 0.719999 21.7019C0.719999 20.3685 1.01333 19.2152 1.6 18.2419C2.18667 17.2685 3.02 16.5152 4.1 15.9819C5.18 15.4485 6.45333 15.1819 7.92 15.1819C9.02667 15.1819 10.0267 15.3352 10.92 15.6419C11.8133 15.9485 12.58 16.3885 13.22 16.9619C13.86 17.5219 14.3467 18.2019 14.68 19.0019C15.0133 19.8019 15.18 20.7019 15.18 21.7019ZM13.54 21.7019C13.54 20.7419 13.32 19.9219 12.88 19.2419C12.44 18.5619 11.8 18.0419 10.96 17.6819C10.12 17.3085 9.11333 17.1219 7.94 17.1219C6.16667 17.1219 4.79333 17.5219 3.82 18.3219C2.84667 19.1085 2.36 20.2352 2.36 21.7019C2.36 22.6619 2.58 23.4885 3.02 24.1819C3.44667 24.8619 4.08 25.3819 4.92 25.7419C5.74667 26.1019 6.75333 26.2819 7.94 26.2819C9.7 26.2819 11.0733 25.8819 12.06 25.0819C13.0467 24.2819 13.54 23.1552 13.54 21.7019ZM15.14 11.4322C15.14 11.6989 15.06 11.9122 14.9 12.0722C14.74 12.2189 14.52 12.2922 14.24 12.2922H1.7C1.39333 12.2922 1.16 12.2189 0.999999 12.0722C0.84 11.9255 0.76 11.7322 0.76 11.4922C0.76 11.2655 0.8 11.0922 0.879999 10.9722C0.959999 10.8522 1.1 10.7189 1.3 10.5722L12.54 2.09219V2.59219H1.66C1.36667 2.59219 1.14667 2.51885 0.999999 2.37219C0.84 2.21219 0.76 1.99219 0.76 1.71219C0.76 1.43219 0.84 1.21885 0.999999 1.07219C1.14667 0.925521 1.36667 0.852187 1.66 0.852187H14.24C14.52 0.852187 14.74 0.925521 14.9 1.07219C15.06 1.20552 15.14 1.38552 15.14 1.61219C15.14 1.82552 15.0933 2.00552 15 2.15219C14.92 2.28552 14.78 2.42552 14.58 2.57219L3.34 11.0322V10.5722H14.24C14.52 10.5722 14.74 10.6455 14.9 10.7922C15.06 10.9389 15.14 11.1522 15.14 11.4322Z" fill="#FCFCFC"/>
</svg>
