<svg width="27" height="219" viewBox="0 0 27 219" fill="none" xmlns="http://www.w3.org/2000/svg">
<path d="M20.14 95.68C20.14 95.9467 20.0733 96.16 19.94 96.32C19.8067 96.48 19.5933 96.6133 19.3 96.72L6.86 101.08C6.55333 101.2 6.29333 101.187 6.08 101.04C5.86667 100.88 5.76 100.62 5.76 100.26C5.76 100.007 5.82 99.8067 5.94 99.66C6.06 99.5133 6.26 99.3933 6.54 99.3L18.34 95.28V96L6.58 91.88C6.3 91.7733 6.09333 91.6467 5.96 91.5C5.82667 91.3533 5.76 91.16 5.76 90.92C5.76 90.6667 5.82667 90.4733 5.96 90.34C6.09333 90.1933 6.30667 90.0733 6.6 89.98L18.34 85.94V86.58L6.54 82.52C6.27333 82.4267 6.08 82.3067 5.96 82.16C5.82667 82.0133 5.76 81.8067 5.76 81.54C5.76 81.2333 5.86667 81.0067 6.08 80.86C6.29333 80.7133 6.55333 80.6933 6.86 80.8L19.32 85.2C19.6 85.2933 19.8067 85.42 19.94 85.58C20.0733 85.74 20.14 85.9533 20.14 86.22C20.14 86.5 20.0733 86.72 19.94 86.88C19.8067 87.04 19.5933 87.1733 19.3 87.28L8.1 91.18V90.74L19.32 94.66C19.6 94.7667 19.8067 94.9 19.94 95.06C20.0733 95.2067 20.14 95.4133 20.14 95.68ZM20 77.2297C20 77.5497 19.9133 77.7964 19.74 77.9697C19.5667 78.143 19.32 78.2297 19 78.2297H6.9C6.58 78.2297 6.33333 78.143 6.16 77.9697C5.98667 77.7964 5.9 77.5497 5.9 77.2297V69.8697C5.9 69.6164 5.96667 69.423 6.1 69.2897C6.22 69.143 6.4 69.0697 6.64 69.0697C6.89333 69.0697 7.08667 69.143 7.22 69.2897C7.35333 69.423 7.42 69.6164 7.42 69.8697V76.4297H12.08V70.2897C12.08 70.0364 12.1467 69.843 12.28 69.7097C12.4133 69.5764 12.6 69.5097 12.84 69.5097C13.0933 69.5097 13.2867 69.5764 13.42 69.7097C13.54 69.843 13.6 70.0364 13.6 70.2897V76.4297H18.48V69.8697C18.48 69.6164 18.5467 69.423 18.68 69.2897C18.8 69.143 18.9867 69.0697 19.24 69.0697C19.4933 69.0697 19.6867 69.143 19.82 69.2897C19.94 69.423 20 69.6164 20 69.8697V77.2297ZM20 65.5709C20 65.8643 19.9133 66.0976 19.74 66.2709C19.5667 66.4309 19.3333 66.5109 19.04 66.5109H6.76C6.45333 66.5109 6.22 66.4309 6.06 66.2709C5.9 66.1109 5.82 65.8843 5.82 65.5909C5.82 65.2843 5.9 65.0509 6.06 64.8909C6.22 64.7309 6.45333 64.6509 6.76 64.6509H18.4V58.2909C18.4 58.0109 18.4667 57.8043 18.6 57.6709C18.7333 57.5243 18.9267 57.4509 19.18 57.4509C19.4467 57.4509 19.6533 57.5243 19.8 57.6709C19.9333 57.8043 20 58.0109 20 58.2909V65.5709ZM20.18 50.0961C20.18 51.4961 19.8867 52.6961 19.3 53.6961C18.7133 54.6961 17.88 55.4694 16.8 56.0161C15.7067 56.5494 14.42 56.8161 12.94 56.8161C11.8333 56.8161 10.84 56.6628 9.96 56.3561C9.06667 56.0494 8.30667 55.6094 7.68 55.0361C7.04 54.4628 6.55333 53.7628 6.22 52.9361C5.88667 52.0961 5.72 51.1494 5.72 50.0961C5.72 49.2961 5.83333 48.5294 6.06 47.7961C6.28667 47.0494 6.60667 46.4094 7.02 45.8761C7.16667 45.6628 7.33333 45.5228 7.52 45.4561C7.70667 45.3894 7.88667 45.3828 8.06 45.4361C8.22 45.4761 8.36 45.5628 8.48 45.6961C8.58667 45.8161 8.64667 45.9694 8.66 46.1561C8.66 46.3428 8.58667 46.5428 8.44 46.7561C8.08 47.2228 7.82 47.7361 7.66 48.2961C7.48667 48.8428 7.4 49.4294 7.4 50.0561C7.4 51.0828 7.62 51.9561 8.06 52.6761C8.48667 53.3828 9.11333 53.9228 9.94 54.2961C10.7533 54.6561 11.7533 54.8361 12.94 54.8361C14.1133 54.8361 15.12 54.6561 15.96 54.2961C16.7867 53.9228 17.42 53.3828 17.86 52.6761C18.2867 51.9561 18.5 51.0828 18.5 50.0561C18.5 49.4294 18.4133 48.8361 18.24 48.2761C18.0667 47.7028 17.8 47.1761 17.44 46.6961C17.2933 46.4828 17.2267 46.2894 17.24 46.1161C17.2533 45.9294 17.3133 45.7761 17.42 45.6561C17.5133 45.5361 17.6467 45.4561 17.82 45.4161C17.98 45.3628 18.1467 45.3628 18.32 45.4161C18.4933 45.4694 18.6467 45.5894 18.78 45.7761C19.2467 46.3228 19.6 46.9761 19.84 47.7361C20.0667 48.4828 20.18 49.2694 20.18 50.0961ZM20.18 37.2097C20.18 38.543 19.8867 39.6964 19.3 40.6697C18.7 41.643 17.86 42.403 16.78 42.9497C15.6867 43.483 14.4067 43.7497 12.94 43.7497C11.8333 43.7497 10.84 43.5964 9.96 43.2897C9.06667 42.983 8.30667 42.5497 7.68 41.9897C7.04 41.4164 6.55333 40.7297 6.22 39.9297C5.88667 39.1164 5.72 38.2097 5.72 37.2097C5.72 35.8764 6.01333 34.723 6.6 33.7497C7.18667 32.7764 8.02 32.023 9.1 31.4897C10.18 30.9564 11.4533 30.6897 12.92 30.6897C14.0267 30.6897 15.0267 30.843 15.92 31.1497C16.8133 31.4564 17.58 31.8964 18.22 32.4697C18.86 33.0297 19.3467 33.7097 19.68 34.5097C20.0133 35.3097 20.18 36.2097 20.18 37.2097ZM18.54 37.2097C18.54 36.2497 18.32 35.4297 17.88 34.7497C17.44 34.0697 16.8 33.5497 15.96 33.1897C15.12 32.8164 14.1133 32.6297 12.94 32.6297C11.1667 32.6297 9.79333 33.0297 8.82 33.8297C7.84667 34.6164 7.36 35.743 7.36 37.2097C7.36 38.1697 7.58 38.9964 8.02 39.6897C8.44667 40.3697 9.08 40.8897 9.92 41.2497C10.7467 41.6097 11.7533 41.7897 12.94 41.7897C14.7 41.7897 16.0733 41.3897 17.06 40.5897C18.0467 39.7897 18.54 38.663 18.54 37.2097ZM20.14 26.92C20.14 27.1867 20.06 27.3933 19.9 27.54C19.74 27.6867 19.5267 27.76 19.26 27.76H6.64C6.36 27.76 6.14667 27.6867 6 27.54C5.84 27.38 5.76 27.1667 5.76 26.9C5.76 26.66 5.80667 26.4733 5.9 26.34C5.99333 26.1933 6.15333 26.06 6.38 25.94L16.44 20.58V21.2L6.38 15.84C6.15333 15.72 5.99333 15.5933 5.9 15.46C5.80667 15.3267 5.76 15.14 5.76 14.9C5.76 14.6333 5.84 14.4267 6 14.28C6.14667 14.1333 6.36 14.06 6.64 14.06H19.26C19.5267 14.06 19.74 14.1333 19.9 14.28C20.06 14.4133 20.14 14.62 20.14 14.9C20.14 15.18 20.06 15.3933 19.9 15.54C19.74 15.6733 19.5267 15.74 19.26 15.74H8.48V15.3L17.46 20.1C17.6333 20.2067 17.7667 20.32 17.86 20.44C17.94 20.5467 17.98 20.7 17.98 20.9C17.98 21.0867 17.9333 21.2467 17.84 21.38C17.7467 21.5 17.62 21.6067 17.46 21.7L8.46 26.56V26.08H19.26C19.5267 26.08 19.74 26.1533 19.9 26.3C20.06 26.4333 20.14 26.64 20.14 26.92ZM20 9.63203C20 9.95203 19.9133 10.1987 19.74 10.372C19.5667 10.5454 19.32 10.632 19 10.632H6.9C6.58 10.632 6.33333 10.5454 6.16 10.372C5.98667 10.1987 5.9 9.95203 5.9 9.63203V2.27203C5.9 2.0187 5.96667 1.82536 6.1 1.69203C6.22 1.54536 6.4 1.47203 6.64 1.47203C6.89333 1.47203 7.08667 1.54536 7.22 1.69203C7.35333 1.82536 7.42 2.0187 7.42 2.27203V8.83203H12.08V2.69203C12.08 2.4387 12.1467 2.24536 12.28 2.11203C12.4133 1.9787 12.6 1.91203 12.84 1.91203C13.0933 1.91203 13.2867 1.9787 13.42 2.11203C13.54 2.24536 13.6 2.4387 13.6 2.69203V8.83203H18.48V2.27203C18.48 2.0187 18.5467 1.82536 18.68 1.69203C18.8 1.54536 18.9867 1.47203 19.24 1.47203C19.4933 1.47203 19.6867 1.54536 19.82 1.69203C19.94 1.82536 20 2.0187 20 2.27203V9.63203Z" fill="black"/>
<line x1="14.5" y1="119" x2="14.5" y2="219" stroke="black" stroke-width="2"/>
</svg>
