<svg width="271" height="25" viewBox="0 0 271 25" fill="none" xmlns="http://www.w3.org/2000/svg">
<line y1="11.1971" x2="132.896" y2="11.1971" stroke="#F36F2E" stroke-width="2.60576"/>
<path d="M154.298 18.1563C153.928 18.1563 153.626 18.0695 153.395 17.8958C153.163 17.7105 152.978 17.4325 152.839 17.0619L149.33 7.1948C149.179 6.75471 149.208 6.37833 149.417 6.06564C149.637 5.75295 150.013 5.5966 150.546 5.5966C150.916 5.5966 151.2 5.68346 151.397 5.85718C151.606 6.03089 151.773 6.30305 151.901 6.67365L154.767 15.2032H154.02L157.043 6.69102C157.182 6.32042 157.35 6.04826 157.547 5.87455C157.755 5.68925 158.027 5.5966 158.363 5.5966C158.687 5.5966 158.948 5.68925 159.145 5.87455C159.342 6.04826 159.51 6.32621 159.649 6.70839L162.532 15.2032H161.89L164.808 6.67365C164.924 6.31463 165.086 6.04826 165.294 5.87455C165.503 5.68925 165.787 5.5966 166.146 5.5966C166.597 5.5966 166.927 5.75295 167.136 6.06564C167.344 6.37833 167.367 6.75471 167.205 7.1948L163.662 17.0793C163.534 17.4383 163.36 17.7105 163.14 17.8958C162.92 18.0695 162.619 18.1563 162.237 18.1563C161.866 18.1563 161.571 18.0695 161.351 17.8958C161.131 17.7105 160.952 17.4325 160.813 17.0619L158.068 9.29677H158.485L155.705 17.0793C155.566 17.4383 155.387 17.7105 155.167 17.8958C154.958 18.0695 154.669 18.1563 154.298 18.1563ZM170.491 18.1563C170.051 18.1563 169.715 18.0347 169.483 17.7915C169.251 17.5483 169.136 17.2067 169.136 16.7666V6.98634C169.136 6.54625 169.251 6.20461 169.483 5.96141C169.715 5.7182 170.051 5.5966 170.491 5.5966C170.919 5.5966 171.249 5.7182 171.481 5.96141C171.712 6.20461 171.828 6.54625 171.828 6.98634V10.6691H177.526V6.98634C177.526 6.54625 177.642 6.20461 177.874 5.96141C178.105 5.7182 178.435 5.5966 178.864 5.5966C179.304 5.5966 179.64 5.7182 179.871 5.96141C180.103 6.20461 180.219 6.54625 180.219 6.98634V16.7666C180.219 17.2067 180.103 17.5483 179.871 17.7915C179.64 18.0347 179.304 18.1563 178.864 18.1563C178.435 18.1563 178.105 18.0347 177.874 17.7915C177.642 17.5483 177.526 17.2067 177.526 16.7666V12.9101H171.828V16.7666C171.828 17.2067 171.712 17.5483 171.481 17.7915C171.261 18.0347 170.931 18.1563 170.491 18.1563ZM182.951 18.1563C182.627 18.1563 182.36 18.0811 182.152 17.9305C181.955 17.78 181.828 17.5773 181.77 17.3225C181.723 17.0677 181.775 16.784 181.926 16.4713L186.373 6.72576C186.558 6.332 186.778 6.04826 187.033 5.87455C187.288 5.68925 187.583 5.5966 187.919 5.5966C188.255 5.5966 188.55 5.68925 188.805 5.87455C189.06 6.04826 189.274 6.332 189.448 6.72576L193.93 16.4713C194.08 16.784 194.132 17.0735 194.086 17.3399C194.051 17.5947 193.936 17.7973 193.739 17.9479C193.542 18.0869 193.287 18.1563 192.974 18.1563C192.581 18.1563 192.274 18.0637 192.054 17.8784C191.845 17.6931 191.66 17.4036 191.498 17.0098L190.455 14.5951L191.533 15.3421H184.289L185.366 14.5951L184.341 17.0098C184.167 17.4152 183.982 17.7105 183.785 17.8958C183.599 18.0695 183.321 18.1563 182.951 18.1563ZM187.884 8.61928L185.661 13.9176L185.192 13.2402H190.629L190.16 13.9176L187.919 8.61928H187.884ZM198.496 18.1563C198.056 18.1563 197.72 18.0347 197.488 17.7915C197.256 17.5483 197.141 17.2067 197.141 16.7666V7.97652H194.066C193.707 7.97652 193.429 7.87808 193.232 7.6812C193.035 7.48433 192.937 7.21217 192.937 6.86473C192.937 6.50572 193.035 6.23356 193.232 6.04826C193.429 5.85138 193.707 5.75295 194.066 5.75295H202.908C203.267 5.75295 203.545 5.85138 203.742 6.04826C203.939 6.23356 204.037 6.50572 204.037 6.86473C204.037 7.21217 203.939 7.48433 203.742 7.6812C203.545 7.87808 203.267 7.97652 202.908 7.97652H199.833V16.7666C199.833 17.2067 199.717 17.5483 199.486 17.7915C199.266 18.0347 198.936 18.1563 198.496 18.1563ZM214.41 18.1563C214.04 18.1563 213.739 18.0695 213.507 17.8958C213.275 17.7105 213.09 17.4325 212.951 17.0619L209.442 7.1948C209.292 6.75471 209.32 6.37833 209.529 6.06564C209.749 5.75295 210.125 5.5966 210.658 5.5966C211.029 5.5966 211.312 5.68346 211.509 5.85718C211.718 6.03089 211.886 6.30305 212.013 6.67365L214.879 15.2032H214.132L217.155 6.69102C217.294 6.32042 217.462 6.04826 217.659 5.87455C217.867 5.68925 218.14 5.5966 218.475 5.5966C218.8 5.5966 219.06 5.68925 219.257 5.87455C219.454 6.04826 219.622 6.32621 219.761 6.70839L222.645 15.2032H222.002L224.92 6.67365C225.036 6.31463 225.198 6.04826 225.407 5.87455C225.615 5.68925 225.899 5.5966 226.258 5.5966C226.71 5.5966 227.04 5.75295 227.248 6.06564C227.457 6.37833 227.48 6.75471 227.318 7.1948L223.774 17.0793C223.646 17.4383 223.473 17.7105 223.253 17.8958C223.033 18.0695 222.731 18.1563 222.349 18.1563C221.979 18.1563 221.683 18.0695 221.463 17.8958C221.243 17.7105 221.064 17.4325 220.925 17.0619L218.18 9.29677H218.597L215.817 17.0793C215.679 17.4383 215.499 17.7105 215.279 17.8958C215.071 18.0695 214.781 18.1563 214.41 18.1563ZM230.655 18C230.203 18 229.856 17.8784 229.613 17.6352C229.369 17.392 229.248 17.0446 229.248 16.5929V7.16005C229.248 6.70839 229.369 6.36096 229.613 6.11775C229.856 5.87455 230.203 5.75295 230.655 5.75295H236.718C237.065 5.75295 237.326 5.84559 237.499 6.03089C237.685 6.20461 237.777 6.45939 237.777 6.79525C237.777 7.14268 237.685 7.40905 237.499 7.59435C237.326 7.76806 237.065 7.85492 236.718 7.85492H231.819V10.7213H236.318C236.677 10.7213 236.944 10.8139 237.117 10.9992C237.303 11.1729 237.395 11.4335 237.395 11.7809C237.395 12.1284 237.303 12.3947 237.117 12.58C236.944 12.7537 236.677 12.8406 236.318 12.8406H231.819V15.898H236.718C237.065 15.898 237.326 15.9907 237.499 16.176C237.685 16.3497 237.777 16.6045 237.777 16.9403C237.777 17.2878 237.685 17.5541 237.499 17.7394C237.326 17.9131 237.065 18 236.718 18H230.655ZM245.851 18C245.399 18 245.052 17.8784 244.809 17.6352C244.566 17.392 244.444 17.0446 244.444 16.5929V7.16005C244.444 6.70839 244.566 6.36096 244.809 6.11775C245.052 5.87455 245.399 5.75295 245.851 5.75295H249.239C251.335 5.75295 252.95 6.28568 254.085 7.35114C255.232 8.40503 255.805 9.91057 255.805 11.8678C255.805 12.8522 255.655 13.7266 255.353 14.4909C255.064 15.2437 254.641 15.8807 254.085 16.4018C253.529 16.923 252.846 17.3225 252.035 17.6005C251.225 17.8668 250.293 18 249.239 18H245.851ZM247.137 15.7938H249.082C249.742 15.7938 250.316 15.7127 250.802 15.5506C251.288 15.3885 251.694 15.1452 252.018 14.821C252.342 14.4967 252.586 14.0914 252.748 13.605C252.91 13.107 252.991 12.5279 252.991 11.8678C252.991 10.5475 252.661 9.56893 252.001 8.93197C251.352 8.28342 250.379 7.95915 249.082 7.95915H247.137V15.7938ZM263.491 18.1911C262.286 18.1911 261.227 17.9305 260.312 17.4094C259.408 16.8766 258.702 16.1354 258.192 15.1858C257.694 14.2361 257.445 13.1301 257.445 11.8678C257.445 10.9066 257.584 10.0438 257.862 9.2794C258.152 8.50347 258.563 7.84334 259.096 7.29903C259.628 6.74313 260.265 6.31463 261.006 6.01352C261.759 5.71241 262.587 5.56186 263.491 5.56186C264.718 5.56186 265.784 5.82243 266.687 6.34358C267.59 6.86473 268.291 7.60014 268.789 8.54979C269.299 9.48786 269.553 10.5881 269.553 11.8504C269.553 12.8116 269.409 13.6802 269.119 14.4562C268.83 15.2321 268.418 15.898 267.886 16.4539C267.353 17.0098 266.716 17.4383 265.975 17.7394C265.234 18.0405 264.406 18.1911 263.491 18.1911ZM263.491 15.898C264.174 15.898 264.753 15.7417 265.228 15.429C265.714 15.1047 266.085 14.6415 266.34 14.0393C266.606 13.4254 266.739 12.7016 266.739 11.8678C266.739 10.5939 266.455 9.60946 265.888 8.9146C265.32 8.20815 264.521 7.85492 263.491 7.85492C262.819 7.85492 262.24 8.01127 261.753 8.32396C261.267 8.63665 260.896 9.0941 260.642 9.69632C260.387 10.2985 260.259 11.0224 260.259 11.8678C260.259 13.1301 260.543 14.1203 261.111 14.8383C261.678 15.5448 262.471 15.898 263.491 15.898Z" fill="#F36F2E"/>
</svg>
